<svg id="visual" viewBox="0 0 900 150" width="900" height="150" xmlns="http://www.w3.org/2000/svg" xmlns:xlink="http://www.w3.org/1999/xlink" version="1.1"><rect x="0" y="0" width="900" height="150" fill="#4D4D4D"></rect><path d="M0 102L13.7 96.2C27.3 90.3 54.7 78.7 82 72.3C109.3 66 136.7 65 163.8 70.7C191 76.3 218 88.7 245.2 88.2C272.3 87.7 299.7 74.3 327 74.3C354.3 74.3 381.7 87.7 409 87.7C436.3 87.7 463.7 74.3 491 65.2C518.3 56 545.7 51 573 58.2C600.3 65.3 627.7 84.7 654.8 95.5C682 106.3 709 108.7 736.2 101.2C763.3 93.7 790.7 76.3 818 74.3C845.3 72.3 872.7 85.7 886.3 92.3L900 99L900 151L886.3 151C872.7 151 845.3 151 818 151C790.7 151 763.3 151 736.2 151C709 151 682 151 654.8 151C627.7 151 600.3 151 573 151C545.7 151 518.3 151 491 151C463.7 151 436.3 151 409 151C381.7 151 354.3 151 327 151C299.7 151 272.3 151 245.2 151C218 151 191 151 163.8 151C136.7 151 109.3 151 82 151C54.7 151 27.3 151 13.7 151L0 151Z" fill="#333333" stroke-linecap="round" stroke-linejoin="miter"></path></svg>