<svg id="visual" viewBox="0 0 900 150" width="900" height="150" xmlns="http://www.w3.org/2000/svg" xmlns:xlink="http://www.w3.org/1999/xlink" version="1.1"><rect x="0" y="0" width="900" height="150" fill="#4D4D4D"></rect><path d="M0 46L13.7 51.8C27.3 57.7 54.7 69.3 82 75.7C109.3 82 136.7 83 163.8 77.3C191 71.7 218 59.3 245.2 59.8C272.3 60.3 299.7 73.7 327 73.7C354.3 73.7 381.7 60.3 409 60.3C436.3 60.3 463.7 73.7 491 82.8C518.3 92 545.7 97 573 89.8C600.3 82.7 627.7 63.3 654.8 52.5C682 41.7 709 39.3 736.2 46.8C763.3 54.3 790.7 71.7 818 73.7C845.3 75.7 872.7 62.3 886.3 55.7L900 49L900 0L886.3 0C872.7 0 845.3 0 818 0C790.7 0 763.3 0 736.2 0C709 0 682 0 654.8 0C627.7 0 600.3 0 573 0C545.7 0 518.3 0 491 0C463.7 0 436.3 0 409 0C381.7 0 354.3 0 327 0C299.7 0 272.3 0 245.2 0C218 0 191 0 163.8 0C136.7 0 109.3 0 82 0C54.7 0 27.3 0 13.7 0L0 0Z" fill="#333333" stroke-linecap="round" stroke-linejoin="miter"></path></svg>